<svg width="543" height="121" viewBox="0 0 543 121" fill="none" xmlns="http://www.w3.org/2000/svg">
<path d="M85.856 91.024C82.528 91.024 80.2667 90.1707 79.072 88.464C77.8773 86.672 77.28 84.4533 77.28 81.808C77.28 79.4187 77.6213 76.7307 78.304 73.744C79.072 70.0747 80.4373 65.7227 82.4 60.688C84.448 55.6533 86.7093 50.4053 89.184 44.944C91.744 39.3973 94.2613 34.1067 96.736 29.072C99.296 24.0373 101.515 19.728 103.392 16.144C102.283 17.168 101.131 18.2347 99.936 19.344C98.8267 20.4533 97.6747 21.6907 96.48 23.056C91.5307 28.6027 87.008 33.8933 82.912 38.928C78.9013 43.8773 75.0187 48.784 71.264 53.648C67.5947 58.4267 63.7973 63.3333 59.872 68.368C57.7387 71.184 56.032 73.3173 54.752 74.768C53.5573 76.1333 52.448 77.072 51.424 77.584C50.4853 78.0107 49.2907 78.224 47.84 78.224C45.7067 78.224 43.2747 77.584 40.544 76.304C41.7387 74.8533 42.5493 71.7387 42.976 66.96C43.488 62.1813 43.744 56.72 43.744 50.576C43.744 44.3467 43.5307 37.904 43.104 31.248C42.6773 24.592 42.0373 18.704 41.184 13.584C40.672 14.4373 39.7333 16.3147 38.368 19.216C37.088 22.1173 35.5093 25.7013 33.632 29.968C31.84 34.1493 29.92 38.7147 27.872 43.664C25.824 48.528 23.8187 53.4347 21.856 58.384C19.9787 63.248 18.272 67.856 16.736 72.208C15.2853 76.56 14.176 80.3147 13.408 83.472C12.64 86.6293 12.384 88.8053 12.64 90H0.864C2.74133 85.2213 4.87467 79.9307 7.264 74.128C9.73867 68.24 12.2987 62.224 14.944 56.08C17.5893 49.936 20.192 43.9627 22.752 38.16C25.3973 32.3573 27.7867 27.0667 29.92 22.288C32.1387 17.424 33.9733 13.4133 35.424 10.256C36.8747 7.09866 37.8133 5.136 38.24 4.368C34.4853 4.28266 30.6453 4.66666 26.72 5.52C22.7947 6.288 19.1253 7.39733 15.712 8.848C12.2987 10.2987 9.39733 11.9627 7.008 13.84C4.704 15.7173 3.21067 17.68 2.528 19.728C2.44267 19.984 2.272 20.112 2.016 20.112C1.33333 20.112 0.992 19.5573 0.992 18.448C0.992 18.2773 0.992 18.1067 0.992 17.936C1.07733 17.68 1.16267 17.424 1.248 17.168C2.016 14.9493 2.95467 12.9867 4.064 11.28C5.25867 9.57333 6.41067 8.12266 7.52 6.92799C10.336 4.02666 13.4933 2.27733 16.992 1.67999C20.4907 0.99733 24.2027 0.655998 28.128 0.655998H40.544C42.4213 0.655998 44.256 0.655998 46.048 0.655998C47.84 0.655998 49.4187 1.12533 50.784 2.064C52.1493 2.91733 53.0453 4.624 53.472 7.184C53.8133 8.976 54.112 11.7067 54.368 15.376C54.7093 18.96 54.9653 22.9707 55.136 27.408C55.392 31.8453 55.6053 36.24 55.776 40.592C55.9467 44.944 56.0747 48.6987 56.16 51.856C56.16 52.0267 56.16 52.5387 56.16 53.392C56.2453 54.16 56.288 55.1413 56.288 56.336C56.288 57.4453 56.2453 58.7253 56.16 60.176C56.16 61.5413 56.0747 62.864 55.904 64.144C57.696 61.9253 59.9147 59.1947 62.56 55.952C65.2907 52.624 68.2347 49.04 71.392 45.2C74.5493 41.2747 77.7493 37.3493 80.992 33.424C84.2347 29.4987 87.3493 25.744 90.336 22.16C93.3227 18.576 95.9253 15.4613 98.144 12.816C100.448 10.0853 102.155 8.03733 103.264 6.672C105.227 4.45333 107.701 2.91733 110.688 2.064C113.675 1.12533 116.661 0.655998 119.648 0.655998H127.584C125.792 2.02133 123.829 4.32533 121.696 7.56799C119.563 10.8107 117.472 14.3093 115.424 18.064C113.461 21.8187 111.712 25.232 110.176 28.304C107.957 32.912 105.696 37.904 103.392 43.28C101.088 48.656 99.04 53.9893 97.248 59.28C95.456 64.5707 94.1333 69.4773 93.28 74C93.024 75.3653 92.896 76.816 92.896 78.352C92.896 80.2293 93.1947 81.8933 93.792 83.344C94.4747 84.7093 95.6693 85.392 97.376 85.392C98.7413 85.392 100.405 84.8373 102.368 83.728H102.496C102.667 83.728 102.795 83.8987 102.88 84.24C102.965 84.496 102.923 84.7093 102.752 84.88C101.131 86.5867 98.656 88.0373 95.328 89.232C92 90.4267 88.8427 91.024 85.856 91.024ZM136.426 88.208C132.501 90.256 128.362 91.28 124.01 91.28C120.341 91.28 116.927 90.384 113.77 88.592C110.613 86.8 108.479 83.9413 107.37 80.016C106.858 78.224 106.602 76.3467 106.602 74.384C106.602 71.1413 107.157 67.8133 108.266 64.4C109.461 60.9013 110.997 57.7013 112.874 54.8C115.775 50.2773 119.445 46.5227 123.882 43.536C128.319 40.5493 133.226 39.056 138.602 39.056C142.613 39.056 145.727 40.08 147.946 42.128C150.165 44.176 151.274 46.5653 151.274 49.296C151.274 52.5387 150.165 55.3973 147.946 57.872C145.813 60.2613 142.997 62.096 139.498 63.376C137.791 63.9733 135.957 64.4427 133.994 64.784C132.117 65.04 130.325 65.168 128.618 65.168C125.119 65.168 122.431 64.6987 120.554 63.76C118.933 67.9413 118.122 71.7813 118.122 75.28C118.122 78.4373 118.847 81.04 120.298 83.088C121.749 85.0507 124.053 86.032 127.21 86.032C129.855 86.032 132.458 85.3067 135.018 83.856C137.663 82.4053 140.095 80.6133 142.314 78.48C144.618 76.3467 146.538 74.2987 148.074 72.336C149.269 70.8853 150.293 69.52 151.146 68.24C151.999 66.96 152.895 65.5093 153.834 63.888C154.773 62.1813 155.882 60.0907 157.162 57.616C157.503 57.0187 157.802 56.72 158.058 56.72C158.57 56.72 158.826 57.4027 158.826 58.768C158.826 59.536 158.698 60.3893 158.442 61.328C158.271 62.1813 157.93 63.0773 157.418 64.016C156.223 66.1493 154.773 68.496 153.066 71.056C151.445 73.5307 149.781 75.92 148.074 78.224C146.538 80.272 144.789 82.1493 142.826 83.856C140.863 85.5627 138.73 87.0133 136.426 88.208ZM124.778 60.944C125.205 61.2 125.674 61.3707 126.186 61.456C126.698 61.5413 127.21 61.584 127.722 61.584C129.429 61.584 131.135 61.2 132.842 60.432C134.549 59.5787 135.999 58.7253 137.194 57.872C139.157 56.5067 140.821 54.8853 142.186 53.008C143.551 51.1307 144.319 48.9973 144.49 46.608C144.575 45.584 144.319 44.7307 143.722 44.048C143.21 43.28 142.271 42.896 140.906 42.896C140.223 42.896 139.37 43.024 138.346 43.28C136.981 43.6213 135.615 44.2613 134.25 45.2C132.885 46.1387 131.562 47.248 130.282 48.528C129.855 48.9547 129.087 49.808 127.978 51.088C126.954 52.2827 125.973 53.648 125.034 55.184C124.095 56.6347 123.626 57.9147 123.626 59.024C123.626 59.9627 124.01 60.6027 124.778 60.944ZM215.837 90.768C212.936 90.768 210.93 89.9147 209.821 88.208C208.797 86.416 208.285 84.368 208.285 82.064C208.285 79.5893 208.669 76.7307 209.437 73.488C210.29 70.16 211.314 66.7467 212.509 63.248C213.789 59.664 215.069 56.336 216.349 53.264C216.776 52.24 217.16 51.1307 217.501 49.936C217.928 48.7413 218.141 47.6747 218.141 46.736C218.141 45.0293 217.373 44.176 215.837 44.176C215.24 44.176 214.557 44.304 213.789 44.56C213.021 44.7307 212.125 45.1147 211.101 45.712C209.309 46.5653 207.602 47.76 205.981 49.296C204.36 50.7467 203.208 51.856 202.525 52.624C199.282 56.8053 196.808 61.328 195.101 66.192C193.48 71.056 191.773 76.0053 189.981 81.04C189.469 82.4907 188.957 83.984 188.445 85.52C187.933 87.056 187.464 88.5493 187.037 90H174.493C175.944 85.904 177.394 81.8507 178.845 77.84C180.381 73.744 181.917 69.6907 183.453 65.68C184.392 63.376 185.245 61.1573 186.013 59.024C186.781 56.8053 187.464 54.7573 188.061 52.88C188.402 51.9413 188.701 50.96 188.957 49.936C189.213 48.912 189.341 47.9733 189.341 47.12C189.341 45.1573 188.488 44.176 186.781 44.176C186.184 44.176 185.458 44.304 184.605 44.56C183.837 44.7307 182.898 45.1147 181.789 45.712C179.997 46.5653 178.29 47.76 176.669 49.296C175.048 50.7467 173.938 51.856 173.341 52.624C172.232 53.9893 171.165 55.5253 170.141 57.232C169.117 58.8533 168.221 60.5173 167.453 62.224C165.746 65.8933 164.381 69.392 163.357 72.72C162.418 75.9627 161.522 78.736 160.669 81.04C160.157 82.4907 159.645 83.984 159.133 85.52C158.621 87.056 158.152 88.5493 157.725 90H145.309C145.309 90 145.608 88.9333 146.205 86.8C146.802 84.6667 147.528 82.5333 148.381 80.4L156.701 59.152C156.957 58.4693 157.341 57.36 157.853 55.824C158.45 54.2027 159.048 52.4533 159.645 50.576C160.242 48.6133 160.754 46.736 161.181 44.944C161.608 43.0667 161.821 41.5307 161.821 40.336C161.821 39.568 161.736 39.056 161.565 38.8C162.333 38.8 163.186 38.8 164.125 38.8C165.149 38.7147 166.088 38.672 166.941 38.672C168.136 38.672 169.245 38.7147 170.269 38.8C171.378 38.8853 172.104 39.0987 172.445 39.44C173.384 40.1227 173.853 41.1467 173.853 42.512C173.853 43.6213 173.64 44.7307 173.213 45.84C172.786 46.864 172.488 47.7173 172.317 48.4C173.512 47.2907 174.834 46.224 176.285 45.2C177.736 44.176 179.826 42.8533 182.557 41.232C184.264 40.2933 186.269 39.5253 188.573 38.928C190.877 38.3307 192.968 38.032 194.845 38.032C199.368 38.032 201.629 39.9093 201.629 43.664C201.629 45.2 201.16 47.248 200.221 49.808C202.013 48.016 203.848 46.48 205.725 45.2C207.688 43.8347 209.736 42.512 211.869 41.232C213.576 40.2933 215.581 39.5253 217.885 38.928C220.189 38.3307 222.28 38.032 224.157 38.032C228.68 38.032 230.941 39.952 230.941 43.792C230.941 44.6453 230.77 45.6267 230.429 46.736C230.173 47.8453 229.789 49.0827 229.277 50.448C228.765 51.8133 228.04 53.6907 227.101 56.08C226.162 58.384 225.181 60.8587 224.157 63.504C223.218 66.064 222.408 68.5387 221.725 70.928C221.128 73.232 220.829 75.152 220.829 76.688C220.829 77.6267 220.957 78.48 221.213 79.248C221.554 79.9307 222.152 80.272 223.005 80.272C223.602 80.272 224.456 79.9733 225.565 79.376C227.101 78.4373 228.637 77.2 230.173 75.664C231.709 74.128 232.733 73.0187 233.245 72.336C234.952 70.1173 236.573 67.7707 238.109 65.296C239.645 62.736 240.968 60.3893 242.077 58.256C242.504 57.5733 242.802 57.232 242.973 57.232C243.485 57.232 243.741 57.9573 243.741 59.408C243.741 60.0907 243.613 60.9013 243.357 61.84C243.186 62.6933 242.888 63.504 242.461 64.272C241.266 66.32 239.858 68.5813 238.237 71.056C236.616 73.5307 234.952 75.92 233.245 78.224C232.05 79.8453 230.472 81.6373 228.509 83.6C226.546 85.5627 224.456 87.2693 222.237 88.72C220.018 90.0853 217.885 90.768 215.837 90.768ZM252.194 91.024C248.269 91.024 244.855 89.7867 241.954 87.312C239.138 84.8373 237.73 80.8693 237.73 75.408C237.73 71.3973 238.455 67.216 239.906 62.864C241.357 58.512 243.405 54.4587 246.05 50.704C248.781 46.9493 252.066 43.8773 255.906 41.488C259.746 39.0987 264.055 37.904 268.834 37.904C272.759 37.904 275.789 38.672 277.922 40.208C280.141 41.6587 281.719 43.6213 282.658 46.096C283.597 48.5707 284.066 51.216 284.066 54.032C284.066 56.1653 283.81 58.3413 283.298 60.56C282.871 62.6933 282.231 64.8267 281.378 66.96C282.829 68.6667 284.663 69.52 286.882 69.52C289.271 69.52 291.49 68.624 293.538 66.832C294.733 65.808 295.799 64.528 296.738 62.992C297.762 61.3707 298.658 59.8773 299.426 58.512C299.682 58 299.981 57.744 300.322 57.744C300.749 57.744 300.962 58.3413 300.962 59.536C300.962 60.304 300.834 61.2 300.578 62.224C300.407 63.248 299.981 64.272 299.298 65.296C298.018 67.5147 296.695 69.2213 295.33 70.416C293.965 71.5253 292.429 72.4213 290.722 73.104C289.442 73.616 288.077 73.872 286.626 73.872C283.981 73.872 281.591 73.0613 279.458 71.44C278.775 72.8907 277.922 74.384 276.898 75.92C274.423 80.1013 271.223 83.6853 267.298 86.672C263.373 89.5733 258.338 91.024 252.194 91.024ZM257.058 86.16C259.021 86.16 260.898 85.52 262.69 84.24C264.567 82.8747 266.274 81.2107 267.81 79.248C269.346 77.2853 270.669 75.2373 271.778 73.104C272.973 70.9707 273.954 69.0933 274.722 67.472C271.821 64.9973 270.37 61.8827 270.37 58.128C270.37 55.6533 271.053 53.7333 272.418 52.368C273.783 51.0027 275.661 50.4053 278.05 50.576C277.965 48.6133 277.453 46.992 276.514 45.712C275.575 44.432 274.039 43.792 271.906 43.792C269.943 43.792 268.066 44.3893 266.274 45.584C264.567 46.7787 262.946 48.3147 261.41 50.192C259.959 51.984 258.637 53.8613 257.442 55.824C256.333 57.7013 255.394 59.408 254.626 60.944C253.517 63.1627 252.493 65.8507 251.554 69.008C250.615 72.1653 250.146 75.1093 250.146 77.84C250.146 80.2293 250.615 82.2347 251.554 83.856C252.578 85.392 254.413 86.16 257.058 86.16ZM293.903 120.08C291.087 120.08 288.484 119.483 286.095 118.288C283.706 117.179 282.511 115.088 282.511 112.016C282.511 110.309 283.023 108.56 284.047 106.768C285.071 105.061 286.522 103.952 288.399 103.44C288.57 103.355 288.783 103.312 289.039 103.312C289.295 103.312 289.508 103.312 289.679 103.312C291.983 103.312 293.519 104.208 294.287 106C294.116 106.085 293.86 106.341 293.519 106.768C293.178 107.28 292.922 107.664 292.751 107.92C291.983 109.456 291.599 110.821 291.599 112.016C291.599 113.381 292.026 114.448 292.879 115.216C293.818 115.984 295.012 116.368 296.463 116.368C297.658 116.368 298.938 116.069 300.303 115.472C301.754 114.96 303.247 114.107 304.783 112.912C307.514 110.693 309.732 108.005 311.439 104.848C313.231 101.776 314.767 98.7467 316.047 95.76C318.266 90.4693 320.356 84.88 322.319 78.992C324.367 73.104 326.372 67.4293 328.335 61.968C326.714 64.9547 324.964 67.9413 323.087 70.928C321.295 73.9147 319.46 76.5173 317.583 78.736C314.852 82.064 311.951 84.8373 308.879 87.056C305.892 89.2747 302.906 90.384 299.919 90.384C297.53 90.384 295.482 89.5307 293.775 87.824C292.068 86.032 291.215 82.96 291.215 78.608C291.215 74.1707 291.983 69.6053 293.519 64.912C295.055 60.2187 297.188 55.8667 299.919 51.856C302.735 47.76 306.02 44.4747 309.775 42C313.615 39.5253 317.796 38.288 322.319 38.288C323.77 38.288 325.348 38.5013 327.055 38.928C328.762 39.3547 330.298 40.1227 331.663 41.232C333.114 42.3413 334.095 43.92 334.607 45.968C335.802 43.408 337.252 41.5733 338.959 40.464C340.666 39.3547 343.61 38.8 347.791 38.8H352.911C351.29 39.824 349.668 41.744 348.047 44.56C346.426 47.2907 344.89 50.5333 343.439 54.288C342.33 57.0187 341.05 60.2187 339.599 63.888C338.234 67.5573 336.954 71.056 335.759 74.384C334.65 77.456 333.37 80.8693 331.919 84.624C330.554 88.3787 328.975 92.0907 327.183 95.76C325.476 99.4293 323.514 102.672 321.295 105.488C317.882 109.84 313.7 113.339 308.751 115.984C303.887 118.715 298.938 120.08 293.903 120.08ZM305.551 79.632C305.807 79.7173 306.191 79.76 306.703 79.76C308.324 79.76 310.074 79.0773 311.951 77.712C313.828 76.3467 315.706 74.5973 317.583 72.464C319.46 70.2453 321.124 68.0267 322.575 65.808C326.159 60.2613 328.847 55.9947 330.639 53.008C332.516 50.0213 333.626 48.144 333.967 47.376C334.052 47.376 334.095 47.2907 334.095 47.12C333.668 45.6693 332.9 44.6453 331.791 44.048C330.767 43.3653 329.572 43.024 328.207 43.024C326.33 43.024 324.324 43.536 322.191 44.56C320.058 45.584 318.266 46.8213 316.815 48.272C314.596 50.4907 312.463 53.3493 310.415 56.848C308.452 60.3467 306.831 63.8027 305.551 67.216C304.271 70.6293 303.631 73.488 303.631 75.792C303.631 77.9253 304.271 79.2053 305.551 79.632ZM368.597 90.896C365.866 90.896 363.904 89.744 362.709 87.44C361.77 85.392 361.301 82.96 361.301 80.144C361.301 76.9867 361.77 73.488 362.709 69.648C363.648 65.808 364.928 61.8827 366.549 57.872C367.146 56.4213 367.914 54.5867 368.853 52.368C369.877 50.1493 371.072 47.9733 372.437 45.84C371.242 46.864 369.834 47.7173 368.213 48.4C366.592 48.9973 365.013 49.296 363.477 49.296C362.282 49.296 361.301 49.1253 360.533 48.784C359.85 50.1493 358.741 52.368 357.205 55.44C355.669 58.512 353.621 62.1387 351.061 66.32C350.805 66.7467 350.549 66.7467 350.293 66.32C350.122 65.808 350.037 65.1253 350.037 64.272C350.037 63.5893 350.122 62.864 350.293 62.096C350.464 61.328 350.72 60.6027 351.061 59.92C351.914 58.2987 352.768 56.6347 353.621 54.928C354.474 53.136 355.242 51.5573 355.925 50.192C356.608 48.8267 356.992 47.9733 357.077 47.632C355.541 46.864 354.389 45.7973 353.621 44.432C352.853 42.9813 352.469 41.5733 352.469 40.208C352.469 38.8427 352.768 37.6053 353.365 36.496C354.048 35.3867 355.029 34.5333 356.309 33.936C357.077 33.68 357.802 33.552 358.485 33.552C360.362 33.552 361.898 34.1493 363.093 35.344C363.008 35.6853 362.922 36.0693 362.837 36.496C362.837 36.8373 362.837 37.2213 362.837 37.648C362.837 40.2933 363.904 42.256 366.037 43.536C368.17 44.816 370.474 45.2853 372.949 44.944C374.144 43.2373 375.509 41.744 377.045 40.464C378.581 39.184 380.245 38.544 382.037 38.544C382.976 38.544 384.298 38.5867 386.005 38.672C387.797 38.7573 389.077 38.7573 389.845 38.672C389.333 39.0133 388.736 39.696 388.053 40.72C387.37 41.744 386.73 42.8107 386.133 43.92C385.536 45.0293 385.066 45.8827 384.725 46.48C382.421 50.9173 380.288 55.3547 378.325 59.792C376.362 64.144 374.869 68.3253 373.845 72.336C373.674 73.104 373.504 73.8293 373.333 74.512C373.248 75.1093 373.205 75.7493 373.205 76.432C373.205 78.992 374.058 80.272 375.765 80.272C376.96 80.272 378.666 79.4187 380.885 77.712C382.848 76.0907 384.597 74.2987 386.133 72.336C387.84 70.1173 389.461 67.728 390.997 65.168C392.533 62.608 393.856 60.2613 394.965 58.128C395.392 57.4453 395.69 57.104 395.861 57.104C396.373 57.104 396.629 57.872 396.629 59.408C396.629 60.0053 396.544 60.7307 396.373 61.584C396.202 62.4373 395.904 63.248 395.477 64.016C394.197 66.1493 392.746 68.496 391.125 71.056C389.504 73.5307 387.84 75.9627 386.133 78.352C385.024 79.888 383.445 81.6373 381.397 83.6C379.434 85.5627 377.301 87.2693 374.997 88.72C372.778 90.1707 370.645 90.896 368.597 90.896ZM429.392 90.768C426.747 90.768 424.912 89.744 423.888 87.696C422.949 85.648 422.48 83.1307 422.48 80.144C422.48 77.4133 422.736 74.7253 423.248 72.08C423.504 70.8853 423.76 69.6907 424.016 68.496C424.357 67.216 424.741 65.8933 425.168 64.528C423.717 67.1733 422.181 69.7333 420.56 72.208C419.024 74.6827 417.445 76.8587 415.824 78.736C413.093 82.064 410.192 84.8373 407.12 87.056C404.133 89.2747 401.147 90.384 398.16 90.384C395.771 90.384 393.723 89.5307 392.016 87.824C390.395 86.032 389.584 82.96 389.584 78.608C389.584 74.1707 390.352 69.6053 391.888 64.912C393.424 60.2187 395.557 55.8667 398.288 51.856C401.104 47.76 404.389 44.4747 408.144 42C411.984 39.5253 416.165 38.288 420.688 38.288C422.139 38.288 423.717 38.5013 425.424 38.928C427.131 39.3547 428.709 40.1653 430.16 41.36C431.611 42.4693 432.592 44.048 433.104 46.096C433.189 45.9253 433.275 45.7973 433.36 45.712C433.531 45.6267 433.659 45.5413 433.744 45.456C434.939 43.5787 436.304 42 437.84 40.72C439.376 39.44 441.083 38.8 442.96 38.8C443.899 38.8 445.221 38.8427 446.928 38.928C448.635 39.0133 449.872 39.0133 450.64 38.928C450.213 39.2693 449.616 39.952 448.848 40.976C448.165 42 447.525 43.0667 446.928 44.176C446.331 45.2 445.861 46.0107 445.52 46.608C443.216 51.0453 441.125 55.44 439.248 59.792C437.371 64.144 435.92 68.3253 434.896 72.336C434.64 73.1893 434.469 74 434.384 74.768C434.299 75.4507 434.256 76.1333 434.256 76.816C434.256 79.0347 434.981 80.144 436.432 80.144C437.797 80.144 439.504 79.2907 441.552 77.584C444.539 75.1947 447.141 72.208 449.36 68.624C451.664 65.04 453.669 61.584 455.376 58.256C455.717 57.6587 456.016 57.36 456.272 57.36C456.784 57.36 457.04 58.0853 457.04 59.536C457.04 60.2187 456.912 60.9867 456.656 61.84C456.485 62.6933 456.187 63.504 455.76 64.272C454.565 66.32 452.987 68.8373 451.024 71.824C449.147 74.8107 447.013 77.7547 444.624 80.656C442.235 83.472 439.717 85.8613 437.072 87.824C434.512 89.7867 431.952 90.768 429.392 90.768ZM403.92 79.632C404.176 79.7173 404.56 79.76 405.072 79.76C406.693 79.76 408.443 79.0773 410.32 77.712C412.197 76.3467 414.075 74.5973 415.952 72.464C417.829 70.2453 419.493 68.0267 420.944 65.808C424.699 59.8347 427.472 55.3547 429.264 52.368C431.056 49.3813 432.08 47.6747 432.336 47.248C431.909 45.7973 431.141 44.7307 430.032 44.048C429.008 43.3653 427.771 43.024 426.32 43.024C424.443 43.024 422.437 43.536 420.304 44.56C418.256 45.584 416.507 46.8213 415.056 48.272C412.837 50.4907 410.704 53.3493 408.656 56.848C406.693 60.3467 405.072 63.8027 403.792 67.216C402.597 70.6293 402 73.488 402 75.792C402 77.9253 402.64 79.2053 403.92 79.632ZM514.212 90.768C511.311 90.768 509.305 89.9147 508.196 88.208C507.172 86.416 506.66 84.368 506.66 82.064C506.66 79.5893 507.044 76.7307 507.812 73.488C508.665 70.16 509.689 66.7467 510.884 63.248C512.164 59.664 513.444 56.336 514.724 53.264C515.151 52.24 515.535 51.1307 515.876 49.936C516.303 48.7413 516.516 47.6747 516.516 46.736C516.516 45.0293 515.748 44.176 514.212 44.176C513.615 44.176 512.932 44.304 512.164 44.56C511.396 44.7307 510.5 45.1147 509.476 45.712C507.684 46.5653 505.977 47.76 504.356 49.296C502.735 50.7467 501.583 51.856 500.9 52.624C497.657 56.8053 495.183 61.328 493.476 66.192C491.855 71.056 490.148 76.0053 488.356 81.04C487.844 82.4907 487.332 83.984 486.82 85.52C486.308 87.056 485.839 88.5493 485.412 90H472.868C474.319 85.904 475.769 81.8507 477.22 77.84C478.756 73.744 480.292 69.6907 481.828 65.68C482.767 63.376 483.62 61.1573 484.388 59.024C485.156 56.8053 485.839 54.7573 486.436 52.88C486.777 51.9413 487.076 50.96 487.332 49.936C487.588 48.912 487.716 47.9733 487.716 47.12C487.716 45.1573 486.863 44.176 485.156 44.176C484.559 44.176 483.833 44.304 482.98 44.56C482.212 44.7307 481.273 45.1147 480.164 45.712C478.372 46.5653 476.665 47.76 475.044 49.296C473.423 50.7467 472.313 51.856 471.716 52.624C470.607 53.9893 469.54 55.5253 468.516 57.232C467.492 58.8533 466.596 60.5173 465.828 62.224C464.121 65.8933 462.756 69.392 461.732 72.72C460.793 75.9627 459.897 78.736 459.044 81.04C458.532 82.4907 458.02 83.984 457.508 85.52C456.996 87.056 456.527 88.5493 456.1 90H443.684C443.684 90 443.983 88.9333 444.58 86.8C445.177 84.6667 445.903 82.5333 446.756 80.4L455.076 59.152C455.332 58.4693 455.716 57.36 456.228 55.824C456.825 54.2027 457.423 52.4533 458.02 50.576C458.617 48.6133 459.129 46.736 459.556 44.944C459.983 43.0667 460.196 41.5307 460.196 40.336C460.196 39.568 460.111 39.056 459.94 38.8C460.708 38.8 461.561 38.8 462.5 38.8C463.524 38.7147 464.463 38.672 465.316 38.672C466.511 38.672 467.62 38.7147 468.644 38.8C469.753 38.8853 470.479 39.0987 470.82 39.44C471.759 40.1227 472.228 41.1467 472.228 42.512C472.228 43.6213 472.015 44.7307 471.588 45.84C471.161 46.864 470.863 47.7173 470.692 48.4C471.887 47.2907 473.209 46.224 474.66 45.2C476.111 44.176 478.201 42.8533 480.932 41.232C482.639 40.2933 484.644 39.5253 486.948 38.928C489.252 38.3307 491.343 38.032 493.22 38.032C497.743 38.032 500.004 39.9093 500.004 43.664C500.004 45.2 499.535 47.248 498.596 49.808C500.388 48.016 502.223 46.48 504.1 45.2C506.063 43.8347 508.111 42.512 510.244 41.232C511.951 40.2933 513.956 39.5253 516.26 38.928C518.564 38.3307 520.655 38.032 522.532 38.032C527.055 38.032 529.316 39.952 529.316 43.792C529.316 44.6453 529.145 45.6267 528.804 46.736C528.548 47.8453 528.164 49.0827 527.652 50.448C527.14 51.8133 526.415 53.6907 525.476 56.08C524.537 58.384 523.556 60.8587 522.532 63.504C521.593 66.064 520.783 68.5387 520.1 70.928C519.503 73.232 519.204 75.152 519.204 76.688C519.204 77.6267 519.332 78.48 519.588 79.248C519.929 79.9307 520.527 80.272 521.38 80.272C521.977 80.272 522.831 79.9733 523.94 79.376C525.476 78.4373 527.012 77.2 528.548 75.664C530.084 74.128 531.108 73.0187 531.62 72.336C533.327 70.1173 534.948 67.7707 536.484 65.296C538.02 62.736 539.343 60.3893 540.452 58.256C540.879 57.5733 541.177 57.232 541.348 57.232C541.86 57.232 542.116 57.9573 542.116 59.408C542.116 60.0907 541.988 60.9013 541.732 61.84C541.561 62.6933 541.263 63.504 540.836 64.272C539.641 66.32 538.233 68.5813 536.612 71.056C534.991 73.5307 533.327 75.92 531.62 78.224C530.425 79.8453 528.847 81.6373 526.884 83.6C524.921 85.5627 522.831 87.2693 520.612 88.72C518.393 90.0853 516.26 90.768 514.212 90.768Z" fill="black"/>
</svg>
